# xmcd CD database file
#
# Track frame offsets:
#	150
#	23783
#	49288
#	63134
#	77615
#	103118
#	118982
#	122918
#	144669
#	162331
#	183751
#
# Disc length: 2855 seconds
#
# Revision: 1
# Processed by: cddbd v1.4PL0 Copyright (c) Steve Scherf et al.
# Submitted via: CDex 1.50beta9
#
DISCID=950b250b
DTITLE=Monkomarok - Au plafond!
DYEAR=2002
DGENRE=Jazz
TTITLE0=Non merci
TTITLE1=OMF
TTITLE2=La sueur
TTITLE3=Recette de la citrouille
TTITLE4=Plume au plafond
TTITLE5=Sico
TTITLE6=Le conseil de l'ORL
TTITLE7=Le sucré
TTITLE8=La trouille
TTITLE9=La lune dans le ventre
TTITLE10=Mami Pygmée, Tonton Papou
EXTD=YEAR: 2002
EXTT0=
EXTT1=
EXTT2=
EXTT3=
EXTT4=
EXTT5=
EXTT6=
EXTT7=
EXTT8=
EXTT9=
EXTT10=
PLAYORDER=
